<svg xmlns="http://www.w3.org/2000/svg" shape-rendering="geometricPrecision" text-rendering="geometricPrecision" image-rendering="optimizeQuality" fill-rule="evenodd" clip-rule="evenodd" viewBox="0 0 513 357.071"><path fill-rule="nonzero" d="M28.477.32h456.044c15.488 0 28.159 12.672 28.159 28.16v300.111c0 15.488-12.671 28.16-28.159 28.16H28.477c-15.486 0-28.157-12.672-28.157-28.16V28.48C.32 12.992 12.991.32 28.477.32z"/><path fill="#fff" fill-rule="nonzero" d="M512.68 237.942H.32V28.48C.32 12.992 12.991.32 28.477.32h456.044c15.488 0 28.159 12.672 28.159 28.16v209.462z"/><path fill="#CE1126" fill-rule="nonzero" d="M512.68 119.129H.32V28.48C.32 12.992 12.991.32 28.477.32h456.044c15.488 0 28.159 12.672 28.159 28.16v90.649z"/><path fill="#007A3D" fill-rule="nonzero" d="M138.439 223.091l28.954-89.11 28.954 89.11-75.802-55.073h93.695l-75.801 55.073zm178.217 0l28.953-89.111 28.954 89.11-75.802-55.072h93.695l-75.8 55.073z"/><rect fill="none" stroke="#CCC" stroke-width=".64" stroke-miterlimit="22.926" x=".32" y=".319" width="512.359" height="356.43" rx="27.231" ry="28.159"/></svg>